<svg width="1921" height="351" viewBox="0 0 1921 351" fill="none" xmlns="http://www.w3.org/2000/svg">
<path d="M278 0.5C181.6 0.5 54.1667 57.1667 2.5 85.5V350.5H1921V263C1910.83 246.667 1830.3 194.5 1589.5 116.5C1348.7 38.5 1139.5 84 1065 116.5C1004 143.833 860.4 198 774 196C687.6 194 570 121.5 522 85.5C480.833 57.1667 374.4 0.5 278 0.5Z" fill="#C4C4C4"/>
<path d="M143 47C53 83 29 16.8333 0 16V350.5H1918.5V301.5C1836 311.5 1697.5 273.5 1620.5 224.5C1510.5 154.5 1371.43 145.685 1296 157C1176 175 1134.5 214.37 1049.5 224.5C985.167 232.167 799.5 190.935 692 121.5C411 -60.0002 200.088 24.1648 143 47Z" fill="black" fill-opacity="0.76"/>
<path d="M358 62.5001C271.2 66.5001 83.1667 114.833 0 138.5V349H1918V296C1892.5 291.5 1906.5 279.5 1818.5 229C1730.5 178.5 1571 194 1529.5 205.5C1496.3 214.7 1368 237 1308 247C1244 254 1076.7 249.5 919.5 175.5C723 83.0001 466.5 57.5001 358 62.5001Z" fill="#021715" fill-opacity="0.7"/>
</svg>
